<svg xmlns="http://www.w3.org/2000/svg" xmlns:xlink="http://www.w3.org/1999/xlink" viewBox="0 0 781.58 402.66"><defs><style>.cls-1,.cls-2,.cls-3,.cls-4{fill:#2b2727;stroke-miterlimit:10;stroke-width:5px;}.cls-1{stroke:url(#linear-gradient);}.cls-2{stroke:url(#linear-gradient-2);}.cls-3{stroke:url(#linear-gradient-3);}.cls-4{stroke:url(#linear-gradient-4);}.cls-5{fill:url(#linear-gradient-5);}.cls-6{fill:none;}</style><linearGradient id="linear-gradient" x1="128.03" y1="436.82" x2="444.7" y2="436.82" gradientUnits="userSpaceOnUse"><stop offset="0" stop-color="#e3b352"/><stop offset="0.22" stop-color="#c5933a"/><stop offset="0.33" stop-color="#b47e2f"/><stop offset="0.48" stop-color="#d8a947"/><stop offset="0.6" stop-color="#c6943b"/><stop offset="0.77" stop-color="#c19454"/><stop offset="0.88" stop-color="#d8a749"/><stop offset="0.94" stop-color="#b68131"/><stop offset="1" stop-color="#b37d2e"/></linearGradient><linearGradient id="linear-gradient-2" x1="111.66" y1="264.99" x2="443.58" y2="264.99" xlink:href="#linear-gradient"/><linearGradient id="linear-gradient-3" x1="487.12" y1="180.72" x2="775.47" y2="180.72" xlink:href="#linear-gradient"/><linearGradient id="linear-gradient-4" x1="437.68" y1="354.6" x2="790.81" y2="354.6" xlink:href="#linear-gradient"/><linearGradient id="linear-gradient-5" x1="0" y1="205.79" x2="781.58" y2="205.79" xlink:href="#linear-gradient"/></defs><g id="Layer_2" data-name="Layer 2"><path class="cls-1" d="M432.32,367.07,442,389.8A316.67,316.67,0,0,1,406,443c-31.65,37.89-65.64,59.89-101.07,65.39-39.64,6.15-83.11-5.76-119.26-32.68a179.46,179.46,0,0,1-54-64.46l50.64-11.74a130.35,130.35,0,0,0,33.25,36.1C240.65,454.27,271.21,463,297.29,459,344.49,451.64,420.47,390.14,432.32,367.07Z" transform="translate(-59.03 -109.8)"/><path class="cls-2" d="M439.39,288.51,415,293.92c-80.95-84.14-114.36-82.54-158.2-75.73-26.12,4.05-51.6,22.76-69.94,51.33C169.77,296.2,161.4,327.8,165,352.19l-48.82,11.32c-.17-1-.34-2-.49-3-5.68-36.59,5.23-80.71,29.17-118C170.87,201.9,208.9,175,249.16,168.78c38.78-6,70.93-4.28,111.31,22.94C387.45,209.92,407.3,242.55,439.39,288.51Z" transform="translate(-59.03 -109.8)"/><path class="cls-3" d="M771.87,211.58l-50.54,11.71c-26.25-43-79.35-64.88-123.9-58-24.35,3.78-46.87,16.07-66.94,36.52-15.25,15.53-26.1,35.3-30.55,44l-10.15-22.28c5.08-15.66,12.67-42.5,27.55-62.25,9.68-12.85,28.34-37.79,70-46.47,41.17-8.59,88.93,4.93,125.68,29.44C739.05,161.72,759.13,184.82,771.87,211.58Z" transform="translate(-59.03 -109.8)"/><path class="cls-4" d="M786.16,259.6c6.47,45.74-1.71,87.44-23.74,120.78-22.74,34.41-58.07,56.92-102.17,65.09-43,8-73.7,5.89-102.56-6.94-29.25-13-54.68-36.42-84.88-65.7l-.65-.62-.6-.68q-15.51-17.37-29.11-32.31l25.11-5.51c3.31,3.67,21.27,20.33,24.67,24.16,60.79,58.86,96,50.08,158.91,38.43C712.43,385,745,337.2,737.21,270.94Z" transform="translate(-59.03 -109.8)"/><polygon class="cls-5" points="779.53 113.79 781.58 105.29 0 276.87 4.36 306.28 779.53 113.79"/><line class="cls-6" x1="440.92" y1="136.09" x2="430.77" y2="113.81"/></g></svg>